<svg xmlns="http://www.w3.org/2000/svg" xmlns:xlink="http://www.w3.org/1999/xlink" version="1.1" style="background: #111111" viewBox="0 0 3420 2808"><style id="v-3" type="text/css">        .joint-element .scalable * {            vector-effect: non-scaling-stroke;        }    </style><defs joint-selector="defs"><marker id="v-2-350065567" orient="auto" overflow="visible" markerUnits="userSpaceOnUse"><path id="v-143" stroke="#7f8c8d" fill="#7f8c8d" transform="rotate(180)" d="M 20 -10 0 0 20 10 Z"></path></marker></defs><g joint-selector="layers"  transform="matrix(1,0,0,1,0,0)"><g  style="pointer-events: none;"></g><g ></g><g  style="user-select: none;"><!--z-index:-4--><!--z-index:-3--><!--z-index:-2--><!--z-index:-1--><!--z-index:0--><!--z-index:1--><!--z-index:2--><!--z-index:3--><!--z-index:4--><!--z-index:5--><!--z-index:6--><!--z-index:7--><!--z-index:8--><!--z-index:9--><!--z-index:10--><!--z-index:11--><!--z-index:12--><!--z-index:13--><!--z-index:14--><!--z-index:15--><!--z-index:16--><!--z-index:17--><!--z-index:18--><!--z-index:19--><!--z-index:20--><!--z-index:21--><!--z-index:22--><!--z-index:23--><g   id="j_1324"  transform="translate(20,2764)"><g id="v-13432"><text  id="v-13433" font-size="24px" xml:space="preserve" y="0.8em" font-weight="normal" text-anchor="start" fill="#cccccc" pointer-events="none" display="block" font-family="Tahoma, Verdana, Helvetica, Arial"><tspan dy="0" >Monday, June 29, 2026 at 4:44 PM Iran Standard Time</tspan></text></g></g><!--z-index:24--><g   id="j_1323"  transform="translate(20,2730)"><g id="v-13430"><text  id="v-13431" font-size="24px" xml:space="preserve" y="0.8em" font-weight="normal" text-anchor="start" fill="#cccccc" pointer-events="none" display="block" font-family="Tahoma, Verdana, Helvetica, Arial"><tspan dy="0" >Inventory Service components</tspan></text></g></g><!--z-index:25--><g   id="j_1322"  transform="translate(20,2684)"><g id="v-13428"><text  id="v-13429" font-size="36px" xml:space="preserve" y="0.8em" font-weight="normal" text-anchor="start" fill="#cccccc" pointer-events="none" display="block" font-family="Tahoma, Verdana, Helvetica, Arial"><tspan dy="0" >Component View: Online Store System - Inventory Service</tspan></text></g></g><!--z-index:26--><g   id="j_1326"  transform="translate(199,143)" style="; opacity: 1;"><g id="v-13444"><rect  id="v-13445" width="3020" height="2408" rx="20" ry="20" stroke-width="3" pointer-events="none" stroke="#27ae60" fill="#111111" opacity="1" stroke-dasharray=""></rect><text  id="v-13446" font-size="33.599999999999994px" xml:space="preserve" y="2369" font-weight="bold" text-anchor="start" pointer-events="visible" font-family="Tahoma, Verdana, Helvetica, Arial" fill="#ffffff" transform="matrix(1,0,0,1,15,0)"><tspan dy="0" >Online Store System</tspan></text><text  id="v-13447" font-size="16.799999999999997px" xml:space="preserve" y="2393" font-weight="normal" text-anchor="start" pointer-events="visible" font-family="Tahoma, Verdana, Helvetica, Arial" fill="#ffffff" transform="matrix(1,0,0,1,15,0)"><tspan dy="0" >[Software System]</tspan></text><image  id="v-13448" pointer-events="visible"></image></g></g><!--z-index:27--><g   id="j_1325"  transform="translate(249,543)" style=""><g  id="v-13437" style="opacity: 1;"><rect  id="v-13438" rx="20" ry="20" stroke-width="3" pointer-events="visiblePainted" fill="#3498db" stroke="#2980b9" stroke-dasharray="" width="450" height="300" style="fill: rgb(52, 152, 219); stroke: rgb(41, 128, 185);"></rect><text  id="v-13439" font-size="18.2px" xml:space="preserve" y="118.35" font-weight="bold" text-anchor="middle" pointer-events="visible" font-family="Tahoma, Verdana, Helvetica, Arial" fill="#ffffff" dominant-baseline="hanging" transform="matrix(1,0,0,1,225,0)" style="fill: rgb(255, 255, 255);"><tspan dy="0" >Web Application</tspan></text><text  id="v-13440" font-size="9.1px" xml:space="preserve" y="144.54999999999998" text-anchor="middle" font-family="Tahoma, Verdana, Helvetica, Arial" fill="#ffffff" dominant-baseline="hanging" transform="matrix(1,0,0,1,225,0)" style="display: block; fill: rgb(255, 255, 255);"><tspan dy="0" >[Container: Next.js]</tspan></text><text  id="v-13441" font-size="13px" xml:space="preserve" y="168.64999999999998" text-anchor="middle" font-family="Tahoma, Verdana, Helvetica, Arial" fill="#ffffff" dominant-baseline="hanging" transform="matrix(1,0,0,1,225,0)" style="display: block; fill: rgb(255, 255, 255);"><tspan dy="0" >User interface for customers, admins, and sellers</tspan></text><g  id="v-13442" color="#ffffff" transform="matrix(1,0,0,1,210,268)" display="none" style="fill: rgb(255, 255, 255);"><g  transform="translate(5 0)"><svg xmlns="http://www.w3.org/2000/svg" width="20" height="20" fill="currentColor" viewBox="0 0 16 16"><path fill-rule="evenodd" d="M6.5 12a5.5 5.5 0 1 0 0-11 5.5 5.5 0 0 0 0 11zM13 6.5a6.5 6.5 0 1 1-13 0 6.5 6.5 0 0 1 13 0z"></path><path d="M10.344 11.742c.03.04.062.078.098.115l3.85 3.85a1 1 0 0 0 1.415-1.414l-3.85-3.85a1.007 1.007 0 0 0-.115-.1 6.538 6.538 0 0 1-1.398 1.4z"></path><path fill-rule="evenodd" d="M6.5 3a.5.5 0 0 1 .5.5V6h2.5a.5.5 0 0 1 0 1H7v2.5a.5.5 0 0 1-1 0V7H3.5a.5.5 0 0 1 0-1H6V3.5a.5.5 0 0 1 .5-.5z"></path></svg></g><g ></g><g ></g><g ></g></g><image  id="v-13443"></image></g></g><!--z-index:28--><g   id="j_1327"  transform="translate(1089,193)" style=""><g  id="v-13449" style="opacity: 1;"><rect  id="v-13450" rx="20" ry="20" stroke-width="3" pointer-events="visiblePainted" fill="#3498db" stroke="#2980b9" stroke-dasharray="" width="450" height="300" style="fill: rgb(52, 152, 219); stroke: rgb(41, 128, 185);"></rect><text  id="v-13451" font-size="18.2px" xml:space="preserve" y="118.35" font-weight="bold" text-anchor="middle" pointer-events="visible" font-family="Tahoma, Verdana, Helvetica, Arial" fill="#ffffff" dominant-baseline="hanging" transform="matrix(1,0,0,1,225,0)" style="fill: rgb(255, 255, 255);"><tspan dy="0" >Catalog Service</tspan></text><text  id="v-13452" font-size="9.1px" xml:space="preserve" y="144.54999999999998" text-anchor="middle" font-family="Tahoma, Verdana, Helvetica, Arial" fill="#ffffff" dominant-baseline="hanging" transform="matrix(1,0,0,1,225,0)" style="display: block; fill: rgb(255, 255, 255);"><tspan dy="0" >[Container: Spring Boot + MongoDB]</tspan></text><text  id="v-13453" font-size="13px" xml:space="preserve" y="168.64999999999998" text-anchor="middle" font-family="Tahoma, Verdana, Helvetica, Arial" fill="#ffffff" dominant-baseline="hanging" transform="matrix(1,0,0,1,225,0)" style="display: block; fill: rgb(255, 255, 255);"><tspan dy="0" >Product management and categorization</tspan></text><g  id="v-13454" color="#ffffff" transform="matrix(1,0,0,1,210,268)" display="none" style="fill: rgb(255, 255, 255);"><g  transform="translate(5 0)"><svg xmlns="http://www.w3.org/2000/svg" width="20" height="20" fill="currentColor" viewBox="0 0 16 16"><path fill-rule="evenodd" d="M6.5 12a5.5 5.5 0 1 0 0-11 5.5 5.5 0 0 0 0 11zM13 6.5a6.5 6.5 0 1 1-13 0 6.5 6.5 0 0 1 13 0z"></path><path d="M10.344 11.742c.03.04.062.078.098.115l3.85 3.85a1 1 0 0 0 1.415-1.414l-3.85-3.85a1.007 1.007 0 0 0-.115-.1 6.538 6.538 0 0 1-1.398 1.4z"></path><path fill-rule="evenodd" d="M6.5 3a.5.5 0 0 1 .5.5V6h2.5a.5.5 0 0 1 0 1H7v2.5a.5.5 0 0 1-1 0V7H3.5a.5.5 0 0 1 0-1H6V3.5a.5.5 0 0 1 .5-.5z"></path></svg></g><g ></g><g ></g><g ></g></g><image  id="v-13455"></image></g></g><!--z-index:29--><g   id="j_1329"  transform="translate(1039,893)" style="; opacity: 1;"><g id="v-13463"><rect  id="v-13464" width="2130" height="1529" rx="20" ry="20" stroke-width="3" pointer-events="none" stroke="#2980b9" fill="#111111" opacity="1" stroke-dasharray=""></rect><text  id="v-13465" font-size="33.599999999999994px" xml:space="preserve" y="1490" font-weight="bold" text-anchor="start" pointer-events="visible" font-family="Tahoma, Verdana, Helvetica, Arial" fill="#ffffff" transform="matrix(1,0,0,1,15,0)"><tspan dy="0" >Inventory Service</tspan></text><text  id="v-13466" font-size="16.799999999999997px" xml:space="preserve" y="1514" font-weight="normal" text-anchor="start" pointer-events="visible" font-family="Tahoma, Verdana, Helvetica, Arial" fill="#ffffff" transform="matrix(1,0,0,1,15,0)"><tspan dy="0" >[Container]</tspan></text><image  id="v-13467" pointer-events="visible"></image></g></g><!--z-index:30--><g   id="j_1335"  transform="translate(1089,543)" style=""><g  id="v-13503" style="opacity: 1;"><rect  id="v-13504" rx="20" ry="20" stroke-width="3" pointer-events="visiblePainted" fill="#3498db" stroke="#2980b9" stroke-dasharray="" width="450" height="300" style="fill: rgb(52, 152, 219); stroke: rgb(41, 128, 185);"></rect><text  id="v-13505" font-size="18.2px" xml:space="preserve" y="118.35" font-weight="bold" text-anchor="middle" pointer-events="visible" font-family="Tahoma, Verdana, Helvetica, Arial" fill="#ffffff" dominant-baseline="hanging" transform="matrix(1,0,0,1,225,0)" style="fill: rgb(255, 255, 255);"><tspan dy="0" >Order Service</tspan></text><text  id="v-13506" font-size="9.1px" xml:space="preserve" y="144.54999999999998" text-anchor="middle" font-family="Tahoma, Verdana, Helvetica, Arial" fill="#ffffff" dominant-baseline="hanging" transform="matrix(1,0,0,1,225,0)" style="display: block; fill: rgb(255, 255, 255);"><tspan dy="0" >[Container: Spring Boot + PostgreSQL]</tspan></text><text  id="v-13507" font-size="13px" xml:space="preserve" y="168.64999999999998" text-anchor="middle" font-family="Tahoma, Verdana, Helvetica, Arial" fill="#ffffff" dominant-baseline="hanging" transform="matrix(1,0,0,1,225,0)" style="display: block; fill: rgb(255, 255, 255);"><tspan dy="0" >Order lifecycle management</tspan></text><g  id="v-13508" color="#ffffff" transform="matrix(1,0,0,1,210,268)" display="none" style="fill: rgb(255, 255, 255);"><g  transform="translate(5 0)"><svg xmlns="http://www.w3.org/2000/svg" width="20" height="20" fill="currentColor" viewBox="0 0 16 16"><path fill-rule="evenodd" d="M6.5 12a5.5 5.5 0 1 0 0-11 5.5 5.5 0 0 0 0 11zM13 6.5a6.5 6.5 0 1 1-13 0 6.5 6.5 0 0 1 13 0z"></path><path d="M10.344 11.742c.03.04.062.078.098.115l3.85 3.85a1 1 0 0 0 1.415-1.414l-3.85-3.85a1.007 1.007 0 0 0-.115-.1 6.538 6.538 0 0 1-1.398 1.4z"></path><path fill-rule="evenodd" d="M6.5 3a.5.5 0 0 1 .5.5V6h2.5a.5.5 0 0 1 0 1H7v2.5a.5.5 0 0 1-1 0V7H3.5a.5.5 0 0 1 0-1H6V3.5a.5.5 0 0 1 .5-.5z"></path></svg></g><g ></g><g ></g><g ></g></g><image  id="v-13509"></image></g></g><!--z-index:31--><g   id="j_1328"  transform="translate(1089,1993)" style=""><g  id="v-13456" style="opacity: 1;"><rect  id="v-13457" rx="20" ry="20" stroke-width="2" pointer-events="visiblePainted" fill="#f39c12" stroke="#e67e22" stroke-dasharray="" width="450" height="300" style="fill: rgb(243, 156, 18); stroke: rgb(230, 126, 34);"></rect><text  id="v-13458" font-size="15.399999999999999px" xml:space="preserve" y="121.45" font-weight="bold" text-anchor="middle" pointer-events="visible" font-family="Tahoma, Verdana, Helvetica, Arial" fill="#ffffff" dominant-baseline="hanging" transform="matrix(1,0,0,1,225,0)" style="fill: rgb(255, 255, 255);"><tspan dy="0" >Inventory Controller</tspan></text><text  id="v-13459" font-size="7.699999999999999px" xml:space="preserve" y="144.85" text-anchor="middle" font-family="Tahoma, Verdana, Helvetica, Arial" fill="#ffffff" dominant-baseline="hanging" transform="matrix(1,0,0,1,225,0)" style="display: block; fill: rgb(255, 255, 255);"><tspan dy="0" >[Component: Spring MVC]</tspan></text><text  id="v-13460" font-size="11px" xml:space="preserve" y="167.55" text-anchor="middle" font-family="Tahoma, Verdana, Helvetica, Arial" fill="#ffffff" dominant-baseline="hanging" transform="matrix(1,0,0,1,225,0)" style="display: block; fill: rgb(255, 255, 255);"><tspan dy="0" >Inventory endpoints</tspan></text><g  id="v-13461" color="#ffffff" transform="matrix(1,0,0,1,222.5,268)" display="none" style="fill: rgb(255, 255, 255);"><g ></g><g ></g><g ></g><g ></g></g><image  id="v-13462"></image></g></g><!--z-index:32--><g   id="j_1330"  transform="translate(1879,1468)" style=""><g  id="v-13468" style="opacity: 1;"><rect  id="v-13469" rx="20" ry="20" stroke-width="2" pointer-events="visiblePainted" fill="#f39c12" stroke="#e67e22" stroke-dasharray="" width="450" height="300" style="fill: rgb(243, 156, 18); stroke: rgb(230, 126, 34);"></rect><text  id="v-13470" font-size="15.399999999999999px" xml:space="preserve" y="121.45" font-weight="bold" text-anchor="middle" pointer-events="visible" font-family="Tahoma, Verdana, Helvetica, Arial" fill="#ffffff" dominant-baseline="hanging" transform="matrix(1,0,0,1,225,0)" style="fill: rgb(255, 255, 255);"><tspan dy="0" >Inventory Service</tspan></text><text  id="v-13471" font-size="7.699999999999999px" xml:space="preserve" y="144.85" text-anchor="middle" font-family="Tahoma, Verdana, Helvetica, Arial" fill="#ffffff" dominant-baseline="hanging" transform="matrix(1,0,0,1,225,0)" style="display: block; fill: rgb(255, 255, 255);"><tspan dy="0" >[Component: Spring Service]</tspan></text><text  id="v-13472" font-size="11px" xml:space="preserve" y="167.55" text-anchor="middle" font-family="Tahoma, Verdana, Helvetica, Arial" fill="#ffffff" dominant-baseline="hanging" transform="matrix(1,0,0,1,225,0)" style="display: block; fill: rgb(255, 255, 255);"><tspan dy="0" >Inventory business logic</tspan></text><g  id="v-13473" color="#ffffff" transform="matrix(1,0,0,1,222.5,268)" display="none" style="fill: rgb(255, 255, 255);"><g ></g><g ></g><g ></g><g ></g></g><image  id="v-13474"></image></g></g><!--z-index:33--><g   id="j_1331"  transform="translate(2669,943)" style=""><g  id="v-13475" style="opacity: 1;"><rect  id="v-13476" rx="20" ry="20" stroke-width="2" pointer-events="visiblePainted" fill="#f39c12" stroke="#e67e22" stroke-dasharray="" width="450" height="300" style="fill: rgb(243, 156, 18); stroke: rgb(230, 126, 34);"></rect><text  id="v-13477" font-size="15.399999999999999px" xml:space="preserve" y="121.45" font-weight="bold" text-anchor="middle" pointer-events="visible" font-family="Tahoma, Verdana, Helvetica, Arial" fill="#ffffff" dominant-baseline="hanging" transform="matrix(1,0,0,1,225,0)" style="fill: rgb(255, 255, 255);"><tspan dy="0" >Inventory Repository</tspan></text><text  id="v-13478" font-size="7.699999999999999px" xml:space="preserve" y="144.85" text-anchor="middle" font-family="Tahoma, Verdana, Helvetica, Arial" fill="#ffffff" dominant-baseline="hanging" transform="matrix(1,0,0,1,225,0)" style="display: block; fill: rgb(255, 255, 255);"><tspan dy="0" >[Component: Spring Data JPA]</tspan></text><text  id="v-13479" font-size="11px" xml:space="preserve" y="167.55" text-anchor="middle" font-family="Tahoma, Verdana, Helvetica, Arial" fill="#ffffff" dominant-baseline="hanging" transform="matrix(1,0,0,1,225,0)" style="display: block; fill: rgb(255, 255, 255);"><tspan dy="0" >Stock data access</tspan></text><g  id="v-13480" color="#ffffff" transform="matrix(1,0,0,1,222.5,268)" display="none" style="fill: rgb(255, 255, 255);"><g ></g><g ></g><g ></g><g ></g></g><image  id="v-13481"></image></g></g><!--z-index:34--><g   id="j_1332"  transform="translate(2669,1293)" style=""><g  id="v-13482" style="opacity: 1;"><rect  id="v-13483" rx="20" ry="20" stroke-width="2" pointer-events="visiblePainted" fill="#f39c12" stroke="#e67e22" stroke-dasharray="" width="450" height="300" style="fill: rgb(243, 156, 18); stroke: rgb(230, 126, 34);"></rect><text  id="v-13484" font-size="15.399999999999999px" xml:space="preserve" y="121.45" font-weight="bold" text-anchor="middle" pointer-events="visible" font-family="Tahoma, Verdana, Helvetica, Arial" fill="#ffffff" dominant-baseline="hanging" transform="matrix(1,0,0,1,225,0)" style="fill: rgb(255, 255, 255);"><tspan dy="0" >Cache Manager</tspan></text><text  id="v-13485" font-size="7.699999999999999px" xml:space="preserve" y="144.85" text-anchor="middle" font-family="Tahoma, Verdana, Helvetica, Arial" fill="#ffffff" dominant-baseline="hanging" transform="matrix(1,0,0,1,225,0)" style="display: block; fill: rgb(255, 255, 255);"><tspan dy="0" >[Component: Redis Client]</tspan></text><text  id="v-13486" font-size="11px" xml:space="preserve" y="167.55" text-anchor="middle" font-family="Tahoma, Verdana, Helvetica, Arial" fill="#ffffff" dominant-baseline="hanging" transform="matrix(1,0,0,1,225,0)" style="display: block; fill: rgb(255, 255, 255);"><tspan dy="0" >Redis caching</tspan></text><g  id="v-13487" color="#ffffff" transform="matrix(1,0,0,1,222.5,268)" display="none" style="fill: rgb(255, 255, 255);"><g ></g><g ></g><g ></g><g ></g></g><image  id="v-13488"></image></g></g><!--z-index:35--><g   id="j_1333"  transform="translate(2669,1643)" style=""><g  id="v-13489" style="opacity: 1;"><rect  id="v-13490" rx="20" ry="20" stroke-width="2" pointer-events="visiblePainted" fill="#f39c12" stroke="#e67e22" stroke-dasharray="" width="450" height="300" style="fill: rgb(243, 156, 18); stroke: rgb(230, 126, 34);"></rect><text  id="v-13491" font-size="15.399999999999999px" xml:space="preserve" y="121.45" font-weight="bold" text-anchor="middle" pointer-events="visible" font-family="Tahoma, Verdana, Helvetica, Arial" fill="#ffffff" dominant-baseline="hanging" transform="matrix(1,0,0,1,225,0)" style="fill: rgb(255, 255, 255);"><tspan dy="0" >Reservation Handler</tspan></text><text  id="v-13492" font-size="7.699999999999999px" xml:space="preserve" y="144.85" text-anchor="middle" font-family="Tahoma, Verdana, Helvetica, Arial" fill="#ffffff" dominant-baseline="hanging" transform="matrix(1,0,0,1,225,0)" style="display: block; fill: rgb(255, 255, 255);"><tspan dy="0" >[Component: Spring Service]</tspan></text><text  id="v-13493" font-size="11px" xml:space="preserve" y="167.55" text-anchor="middle" font-family="Tahoma, Verdana, Helvetica, Arial" fill="#ffffff" dominant-baseline="hanging" transform="matrix(1,0,0,1,225,0)" style="display: block; fill: rgb(255, 255, 255);"><tspan dy="0" >Temporary stock reservation</tspan></text><g  id="v-13494" color="#ffffff" transform="matrix(1,0,0,1,222.5,268)" display="none" style="fill: rgb(255, 255, 255);"><g ></g><g ></g><g ></g><g ></g></g><image  id="v-13495"></image></g></g><!--z-index:36--><g   id="j_1334"  transform="translate(2669,1993)" style=""><g  id="v-13496" style="opacity: 1;"><rect  id="v-13497" rx="20" ry="20" stroke-width="2" pointer-events="visiblePainted" fill="#f39c12" stroke="#e67e22" stroke-dasharray="" width="450" height="300" style="fill: rgb(243, 156, 18); stroke: rgb(230, 126, 34);"></rect><text  id="v-13498" font-size="15.399999999999999px" xml:space="preserve" y="121.45" font-weight="bold" text-anchor="middle" pointer-events="visible" font-family="Tahoma, Verdana, Helvetica, Arial" fill="#ffffff" dominant-baseline="hanging" transform="matrix(1,0,0,1,225,0)" style="fill: rgb(255, 255, 255);"><tspan dy="0" >Seller Inventory Manager</tspan></text><text  id="v-13499" font-size="7.699999999999999px" xml:space="preserve" y="144.85" text-anchor="middle" font-family="Tahoma, Verdana, Helvetica, Arial" fill="#ffffff" dominant-baseline="hanging" transform="matrix(1,0,0,1,225,0)" style="display: block; fill: rgb(255, 255, 255);"><tspan dy="0" >[Component: Spring Service]</tspan></text><text  id="v-13500" font-size="11px" xml:space="preserve" y="167.55" text-anchor="middle" font-family="Tahoma, Verdana, Helvetica, Arial" fill="#ffffff" dominant-baseline="hanging" transform="matrix(1,0,0,1,225,0)" style="display: block; fill: rgb(255, 255, 255);"><tspan dy="0" >Manage seller-specific inventory</tspan></text><g  id="v-13501" color="#ffffff" transform="matrix(1,0,0,1,222.5,268)" display="none" style="fill: rgb(255, 255, 255);"><g ></g><g ></g><g ></g><g ></g></g><image  id="v-13502"></image></g></g><!--z-index:37--><g   id="j_1336"  style="opacity: 1;"><path fill="none" cursor="pointer" stroke="transparent" stroke-linecap="round" joint-selector="wrapper" id="v-13521" stroke-width="10" stroke-linejoin="round" d="M 643.29 543 L 862 350 C 866.6666666666665 345.3333333333333 872.3333333333333 343 879 343 L 1089 343"></path><path fill="none" pointer-events="none" joint-selector="line" id="v-13520" stroke="#7f8c8d" stroke-width="2" stroke-linejoin="round" stroke-dasharray="8 8" d="M 643.29 543 L 862 350 C 866.6666666666665 345.3333333333333 872.3333333333333 343 879 343 L 1089 343" marker-end="url(#v-2-350065567)"></path><g id="v-13510" ><g id="v-13511"  label-idx="0" cursor="move" transform="matrix(1,0,0,1,869.6505126953125,335.9412536621094)" style="cursor: default;"><rect joint-selector="rect" id="v-13515" fill="#111111" rx="3" ry="3" x="-37.11175537109375" y="-7.67913293838501" width="72.95118713378906" height="14.638843536376953" pointer-events="none"  style="display: block;"></rect><text joint-selector="text" id="v-13514" font-size="11px" xml:space="preserve" fill="#7f8c8d" text-anchor="middle" pointer-events="none" font-family="Tahoma, Verdana, Helvetica, Arial" font-weight="normal"  style="display: block;"><tspan dy="0.3em" >Gets products</tspan></text></g><g id="v-13512"  label-idx="1" cursor="move" transform="matrix(1,0,0,1,869.6505126953125,355.291259765625)" style="cursor: default;"><rect joint-selector="rect" id="v-13517" fill="#111111" rx="3" ry="3" x="-15.58236312866211" y="-5.009421348571777" width="28.187692642211914" height="10.979132652282715"  pointer-events="none" style="display: block;"></rect><text joint-selector="text" id="v-13516" font-size="7.699999999999999px" xml:space="preserve" fill="#7f8c8d" text-anchor="middle" pointer-events="none" font-family="Tahoma, Verdana, Helvetica, Arial" font-weight="normal"  style="display: block;"><tspan dy="0.3em" >[REST]</tspan></text></g><g id="v-13513"  label-idx="2" cursor="move" transform="matrix(1,0,0,1,828.4583740234375,385.1242370605469)" style="cursor: default;"><rect joint-selector="rect" id="v-13519" fill="#ffffff" rx="3" ry="3" x="1.1368683772161603e-13" y="0" width="0" height="0"  display="none"></rect><text joint-selector="text" id="v-13518" fill="#000000" font-size="14" text-anchor="middle" text-vertical-anchor="middle" pointer-events="none"></text></g></g></g><!--z-index:38--><g   id="j_1337"  style="opacity: 1;"><path fill="none" cursor="pointer" stroke="transparent" stroke-linecap="round" joint-selector="wrapper" id="v-13533" stroke-width="10" stroke-linejoin="round" d="M 514.86 843 L 866 2133 C 867.9999999999999 2139.6666666666665 872.3333333333333 2143 879 2143 L 1089 2143"></path><path fill="none" pointer-events="none" joint-selector="line" id="v-13532" stroke="#7f8c8d" stroke-width="2" stroke-linejoin="round" stroke-dasharray="8 8" d="M 514.86 843 L 866 2133 C 867.9999999999999 2139.6666666666665 872.3333333333333 2143 879 2143 L 1089 2143" marker-end="url(#v-2-350065567)"></path><g id="v-13522" ><g id="v-13523"  label-idx="0" cursor="move" transform="matrix(1,0,0,1,870.10791015625,2131.116455078125)" style="cursor: default;"><rect joint-selector="rect" id="v-13527" fill="#111111" rx="3" ry="3" x="-34.88161849975586" y="-7.67913293838501" width="67.9387435913086" height="14.638843536376953" pointer-events="none"  style="display: block;"></rect><text joint-selector="text" id="v-13526" font-size="11px" xml:space="preserve" fill="#7f8c8d" text-anchor="middle" pointer-events="none" font-family="Tahoma, Verdana, Helvetica, Arial" font-weight="normal"  style="display: block;"><tspan dy="0.3em" >Checks stock</tspan></text></g><g id="v-13524"  label-idx="1" cursor="move" transform="matrix(1,0,0,1,870.10791015625,2150.46630859375)" style="cursor: default;"><rect joint-selector="rect" id="v-13529" fill="#111111" rx="3" ry="3" x="-15.58236312866211" y="-5.009421348571777" width="28.187692642211914" height="10.979132652282715"  pointer-events="none" style="display: block;"></rect><text joint-selector="text" id="v-13528" font-size="7.699999999999999px" xml:space="preserve" fill="#7f8c8d" text-anchor="middle" pointer-events="none" font-family="Tahoma, Verdana, Helvetica, Arial" font-weight="normal"  style="display: block;"><tspan dy="0.3em" >[REST]</tspan></text></g><g id="v-13525"  label-idx="2" cursor="move" transform="matrix(1,0,0,1,710.3456420898438,1612.25244140625)" style="cursor: default;"><rect joint-selector="rect" id="v-13531" fill="#ffffff" rx="3" ry="3" x="-1.1368683772161603e-13" y="0" width="0" height="0"  display="none"></rect><text joint-selector="text" id="v-13530" fill="#000000" font-size="14" text-anchor="middle" text-vertical-anchor="middle" pointer-events="none"></text></g></g></g><!--z-index:39--><g   id="j_1338"  style="opacity: 1;"><path fill="none" cursor="pointer" stroke="transparent" stroke-linecap="round" joint-selector="wrapper" id="v-13545" stroke-width="10" stroke-linejoin="round" d="M 699 693 L 1089 693"></path><path fill="none" pointer-events="none" joint-selector="line" id="v-13544" stroke="#7f8c8d" stroke-width="2" stroke-linejoin="round" stroke-dasharray="8 8" d="M 699 693 L 1089 693" marker-end="url(#v-2-350065567)"></path><g id="v-13534" ><g id="v-13535"  label-idx="0" cursor="move" transform="matrix(1,0,0,1,869,684.1500244140625)" style="cursor: default;"><rect joint-selector="rect" id="v-13539" fill="#111111" rx="3" ry="3" x="-35.71077346801758" y="-7.67913293838501" width="70.1474380493164" height="14.638843536376953" pointer-events="none"  style="display: block;"></rect><text joint-selector="text" id="v-13538" font-size="11px" xml:space="preserve" fill="#7f8c8d" text-anchor="middle" pointer-events="none" font-family="Tahoma, Verdana, Helvetica, Arial" font-weight="normal"  style="display: block;"><tspan dy="0.3em" >Places orders</tspan></text></g><g id="v-13536"  label-idx="1" cursor="move" transform="matrix(1,0,0,1,869,703.5)" style="cursor: default;"><rect joint-selector="rect" id="v-13541" fill="#111111" rx="3" ry="3" x="-15.58236312866211" y="-5.009421348571777" width="28.187692642211914" height="10.979132652282715"  pointer-events="none" style="display: block;"></rect><text joint-selector="text" id="v-13540" font-size="7.699999999999999px" xml:space="preserve" fill="#7f8c8d" text-anchor="middle" pointer-events="none" font-family="Tahoma, Verdana, Helvetica, Arial" font-weight="normal"  style="display: block;"><tspan dy="0.3em" >[REST]</tspan></text></g><g id="v-13537"  label-idx="2" cursor="move" transform="matrix(1,0,0,1,884,707.3499755859375)" style="cursor: default;"><rect joint-selector="rect" id="v-13543" fill="#ffffff" rx="3" ry="3" x="0" y="0" width="0" height="0"  display="none"></rect><text joint-selector="text" id="v-13542" fill="#000000" font-size="14" text-anchor="middle" text-vertical-anchor="middle" pointer-events="none"></text></g></g></g><!--z-index:40--><g   id="j_1339"  style="opacity: 1;"><path fill="none" cursor="pointer" stroke="transparent" stroke-linecap="round" joint-selector="wrapper" id="v-13560" stroke-width="10" stroke-linejoin="round" d="M 1406.17 493 L 1704 977 C 1707.3333333333333 982.8833333333332 1710.6666666666665 988.55 1714 994 L 2010.28 1468"></path><path fill="none" pointer-events="none" joint-selector="line" id="v-13559" stroke="#7f8c8d" stroke-width="2" stroke-linejoin="round" stroke-dasharray="8 8" d="M 1406.17 493 L 1704 977 C 1707.3333333333333 982.8833333333332 1710.6666666666665 988.55 1714 994 L 2010.28 1468" marker-end="url(#v-2-350065567)"></path><g id="v-13549" ><g id="v-13550"  label-idx="0" cursor="move" transform="matrix(1,0,0,1,1709.078125,976.9452514648438)" style="cursor: default;"><rect joint-selector="rect" id="v-13554" fill="#111111" rx="3" ry="3" x="-67.5331039428711" y="-7.67913293838501" width="133.81353759765625" height="14.638843536376953" pointer-events="none"  style="display: block;"></rect><text joint-selector="text" id="v-13553" font-size="11px" xml:space="preserve" fill="#7f8c8d" text-anchor="middle" pointer-events="none" font-family="Tahoma, Verdana, Helvetica, Arial" font-weight="normal"  style="display: block;"><tspan dy="0.3em" >Notifies inventory changes</tspan></text></g><g id="v-13551"  label-idx="1" cursor="move" transform="matrix(1,0,0,1,1709.078125,996.2952880859375)" style="cursor: default;"><rect joint-selector="rect" id="v-13556" fill="#111111" rx="3" ry="3" x="-15.58236312866211" y="-5.009421348571777" width="28.187692642211914" height="10.979132652282715"  pointer-events="none" style="display: block;"></rect><text joint-selector="text" id="v-13555" font-size="7.699999999999999px" xml:space="preserve" fill="#7f8c8d" text-anchor="middle" pointer-events="none" font-family="Tahoma, Verdana, Helvetica, Arial" font-weight="normal"  style="display: block;"><tspan dy="0.3em" >[REST]</tspan></text></g><g id="v-13552"  label-idx="2" cursor="move" transform="matrix(1,0,0,1,1696.578125,995.857177734375)" style="cursor: default;"><rect joint-selector="rect" id="v-13558" fill="#ffffff" rx="3" ry="3" x="0" y="0" width="0" height="0"  display="none"></rect><text joint-selector="text" id="v-13557" fill="#000000" font-size="14" text-anchor="middle" text-vertical-anchor="middle" pointer-events="none"></text></g></g></g><!--z-index:41--><g   id="j_1340"  style="opacity: 1;"><path fill="none" cursor="pointer" stroke="transparent" stroke-linecap="round" joint-selector="wrapper" id="v-13572" stroke-width="10" stroke-linejoin="round" d="M 1380.57 843 L 1705 1574 C 1707.6666666666665 1580.0499999999997 1712.3333333333333 1583.3833333333332 1719 1584 L 1879 1598.11"></path><path fill="none" pointer-events="none" joint-selector="line" id="v-13571" stroke="#7f8c8d" stroke-width="2" stroke-linejoin="round" stroke-dasharray="8 8" d="M 1380.57 843 L 1705 1574 C 1707.6666666666665 1580.0499999999997 1712.3333333333333 1583.3833333333332 1719 1584 L 1879 1598.11" marker-end="url(#v-2-350065567)"></path><g id="v-13561" ><g id="v-13562"  label-idx="0" cursor="move" transform="matrix(1,0,0,1,1710.0152587890625,1571.8258056640625)" style="cursor: default;"><rect joint-selector="rect" id="v-13566" fill="#111111" rx="3" ry="3" x="-49.377506256103516" y="-7.67913293838501" width="96.90907287597656" height="14.638843536376953" pointer-events="none"  style="display: block;"></rect><text joint-selector="text" id="v-13565" font-size="11px" xml:space="preserve" fill="#7f8c8d" text-anchor="middle" pointer-events="none" font-family="Tahoma, Verdana, Helvetica, Arial" font-weight="normal"  style="display: block;"><tspan dy="0.3em" >Reserves inventory</tspan></text></g><g id="v-13563"  label-idx="1" cursor="move" transform="matrix(1,0,0,1,1710.0152587890625,1591.1759033203125)" style="cursor: default;"><rect joint-selector="rect" id="v-13568" fill="#111111" rx="3" ry="3" x="-15.58236312866211" y="-5.009421348571777" width="28.187692642211914" height="10.979132652282715"  pointer-events="none" style="display: block;"></rect><text joint-selector="text" id="v-13567" font-size="7.699999999999999px" xml:space="preserve" fill="#7f8c8d" text-anchor="middle" pointer-events="none" font-family="Tahoma, Verdana, Helvetica, Arial" font-weight="normal"  style="display: block;"><tspan dy="0.3em" >[REST]</tspan></text></g><g id="v-13564"  label-idx="2" cursor="move" transform="matrix(1,0,0,1,1569.0445556640625,1304.54931640625)" style="cursor: default;"><rect joint-selector="rect" id="v-13570" fill="#ffffff" rx="3" ry="3" x="0" y="0" width="0" height="0"  display="none"></rect><text joint-selector="text" id="v-13569" fill="#000000" font-size="14" text-anchor="middle" text-vertical-anchor="middle" pointer-events="none"></text></g></g></g><!--z-index:42--><g   id="j_1341"  style="opacity: 1;"><path fill="none" cursor="pointer" stroke="transparent" stroke-linecap="round" joint-selector="wrapper" id="v-13581" stroke-width="10" stroke-linejoin="round" d="M 1539 2143 L 1699 2143 C 1705.6666666666665 2143 1711 2140.333333333333 1715 2135 L 1991.14 1768"></path><path fill="none" pointer-events="none" joint-selector="line" id="v-13580" stroke="#7f8c8d" stroke-width="2" stroke-linejoin="round" stroke-dasharray="8 8" d="M 1539 2143 L 1699 2143 C 1705.6666666666665 2143 1711 2140.333333333333 1715 2135 L 1991.14 1768" marker-end="url(#v-2-350065567)"></path><g id="v-13573" ><g id="v-13574"  label-idx="0" cursor="move" transform="matrix(1,0,0,1,1708.280029296875,2140.85693359375)" style="cursor: default;"><rect joint-selector="rect" id="v-13577" fill="#111111" rx="3" ry="3" x="-15.067715644836426" y="-7.67913293838501" width="28.857749938964844" height="14.638843536376953" pointer-events="none"  style="display: block;"></rect><text joint-selector="text" id="v-13576" font-size="11px" xml:space="preserve" fill="#7f8c8d" text-anchor="middle" pointer-events="none" font-family="Tahoma, Verdana, Helvetica, Arial" font-weight="normal"  style="display: block;"><tspan dy="0.3em" >Uses</tspan></text></g><g id="v-13575"  label-idx="1" cursor="move" transform="matrix(1,0,0,1,1698.280029296875,2146.35693359375)" style="cursor: default;"><rect joint-selector="rect" id="v-13579" fill="#ffffff" rx="3" ry="3" x="0" y="0" width="0" height="0"  display="none"></rect><text joint-selector="text" id="v-13578" fill="#000000" font-size="14" text-anchor="middle" text-vertical-anchor="middle" pointer-events="none"></text></g></g></g><!--z-index:43--><g   id="j_1342"  style="opacity: 1;"><path fill="none" cursor="pointer" stroke="transparent" stroke-linecap="round" joint-selector="wrapper" id="v-13590" stroke-width="10" stroke-linejoin="round" d="M 2216.86 1468 L 2493 1101 C 2497 1095.6666666666665 2502.333333333333 1093 2509 1093 L 2669 1093"></path><path fill="none" pointer-events="none" joint-selector="line" id="v-13589" stroke="#7f8c8d" stroke-width="2" stroke-linejoin="round" stroke-dasharray="8 8" d="M 2216.86 1468 L 2493 1101 C 2497 1095.6666666666665 2502.333333333333 1093 2509 1093 L 2669 1093" marker-end="url(#v-2-350065567)"></path><g id="v-13582" ><g id="v-13583"  label-idx="0" cursor="move" transform="matrix(1,0,0,1,2499.719970703125,1095.14306640625)" style="cursor: default;"><rect joint-selector="rect" id="v-13586" fill="#111111" rx="3" ry="3" x="-34.82443618774414" y="-7.67913293838501" width="68.3890609741211" height="14.638843536376953" pointer-events="none"  style="display: block;"></rect><text joint-selector="text" id="v-13585" font-size="11px" xml:space="preserve" fill="#7f8c8d" text-anchor="middle" pointer-events="none" font-family="Tahoma, Verdana, Helvetica, Arial" font-weight="normal"  style="display: block;"><tspan dy="0.3em" >Reads/writes</tspan></text></g><g id="v-13584"  label-idx="1" cursor="move" transform="matrix(1,0,0,1,2489.719970703125,1100.64306640625)" style="cursor: default;"><rect joint-selector="rect" id="v-13588" fill="#ffffff" rx="3" ry="3" x="4.547473508864641e-13" y="0" width="0" height="0"  display="none"></rect><text joint-selector="text" id="v-13587" fill="#000000" font-size="14" text-anchor="middle" text-vertical-anchor="middle" pointer-events="none"></text></g></g></g><!--z-index:44--><g   id="j_1343"  style="opacity: 1;"><path fill="none" cursor="pointer" stroke="transparent" stroke-linecap="round" joint-selector="wrapper" id="v-13599" stroke-width="10" stroke-linejoin="round" d="M 2329 1518.32 L 2490 1447 C 2496 1444.3333333333333 2502.333333333333 1443 2509 1443 L 2669 1443"></path><path fill="none" pointer-events="none" joint-selector="line" id="v-13598" stroke="#7f8c8d" stroke-width="2" stroke-linejoin="round" stroke-dasharray="8 8" d="M 2329 1518.32 L 2490 1447 C 2496 1444.3333333333333 2502.333333333333 1443 2509 1443 L 2669 1443" marker-end="url(#v-2-350065567)"></path><g id="v-13591" ><g id="v-13592"  label-idx="0" cursor="move" transform="matrix(1,0,0,1,2499.212890625,1444.0078125)" style="cursor: default;"><rect joint-selector="rect" id="v-13595" fill="#111111" rx="3" ry="3" x="-20.786014556884766" y="-7.67913293838501" width="40.303279876708984" height="14.638843536376953" pointer-events="none"  style="display: block;"></rect><text joint-selector="text" id="v-13594" font-size="11px" xml:space="preserve" fill="#7f8c8d" text-anchor="middle" pointer-events="none" font-family="Tahoma, Verdana, Helvetica, Arial" font-weight="normal"  style="display: block;"><tspan dy="0.3em" >Caches</tspan></text></g><g id="v-13593"  label-idx="1" cursor="move" transform="matrix(1,0,0,1,2489.212890625,1449.5078125)" style="cursor: default;"><rect joint-selector="rect" id="v-13597" fill="#ffffff" rx="3" ry="3" x="0" y="0" width="0" height="0"  display="none"></rect><text joint-selector="text" id="v-13596" fill="#000000" font-size="14" text-anchor="middle" text-vertical-anchor="middle" pointer-events="none"></text></g></g></g><!--z-index:45--><g   id="j_1344"  style="opacity: 1;"><path fill="none" cursor="pointer" stroke="transparent" stroke-linecap="round" joint-selector="wrapper" id="v-13608" stroke-width="10" stroke-linejoin="round" d="M 2329 1717.68 L 2490 1789 C 2496 1791.6666666666665 2502.333333333333 1793 2509 1793 L 2669 1793"></path><path fill="none" pointer-events="none" joint-selector="line" id="v-13607" stroke="#7f8c8d" stroke-width="2" stroke-linejoin="round" stroke-dasharray="8 8" d="M 2329 1717.68 L 2490 1789 C 2496 1791.6666666666665 2502.333333333333 1793 2509 1793 L 2669 1793" marker-end="url(#v-2-350065567)"></path><g id="v-13600" ><g id="v-13601"  label-idx="0" cursor="move" transform="matrix(1,0,0,1,2499.212890625,1791.9921875)" style="cursor: default;"><rect joint-selector="rect" id="v-13604" fill="#111111" rx="3" ry="3" x="-15.067715644836426" y="-7.67913293838501" width="28.857749938964844" height="14.638843536376953" pointer-events="none"  style="display: block;"></rect><text joint-selector="text" id="v-13603" font-size="11px" xml:space="preserve" fill="#7f8c8d" text-anchor="middle" pointer-events="none" font-family="Tahoma, Verdana, Helvetica, Arial" font-weight="normal"  style="display: block;"><tspan dy="0.3em" >Uses</tspan></text></g><g id="v-13602"  label-idx="1" cursor="move" transform="matrix(1,0,0,1,2489.212890625,1797.4921875)" style="cursor: default;"><rect joint-selector="rect" id="v-13606" fill="#ffffff" rx="3" ry="3" x="0" y="0" width="0" height="0"  display="none"></rect><text joint-selector="text" id="v-13605" fill="#000000" font-size="14" text-anchor="middle" text-vertical-anchor="middle" pointer-events="none"></text></g></g></g><!--z-index:46--><g   id="j_1345"  style="opacity: 1;"><path fill="none" cursor="pointer" stroke="transparent" stroke-linecap="round" joint-selector="wrapper" id="v-13617" stroke-width="10" stroke-linejoin="round" d="M 2216.86 1768 L 2493 2135 C 2497 2140.333333333333 2502.333333333333 2143 2509 2143 L 2669 2143"></path><path fill="none" pointer-events="none" joint-selector="line" id="v-13616" stroke="#7f8c8d" stroke-width="2" stroke-linejoin="round" stroke-dasharray="8 8" d="M 2216.86 1768 L 2493 2135 C 2497 2140.333333333333 2502.333333333333 2143 2509 2143 L 2669 2143" marker-end="url(#v-2-350065567)"></path><g id="v-13609" ><g id="v-13610"  label-idx="0" cursor="move" transform="matrix(1,0,0,1,2499.719970703125,2140.85693359375)" style="cursor: default;"><rect joint-selector="rect" id="v-13613" fill="#111111" rx="3" ry="3" x="-15.067715644836426" y="-7.67913293838501" width="28.857749938964844" height="14.638843536376953" pointer-events="none"  style="display: block;"></rect><text joint-selector="text" id="v-13612" font-size="11px" xml:space="preserve" fill="#7f8c8d" text-anchor="middle" pointer-events="none" font-family="Tahoma, Verdana, Helvetica, Arial" font-weight="normal"  style="display: block;"><tspan dy="0.3em" >Uses</tspan></text></g><g id="v-13611"  label-idx="1" cursor="move" transform="matrix(1,0,0,1,2489.719970703125,2146.35693359375)" style="cursor: default;"><rect joint-selector="rect" id="v-13615" fill="#ffffff" rx="3" ry="3" x="4.547473508864641e-13" y="0" width="0" height="0"  display="none"></rect><text joint-selector="text" id="v-13614" fill="#000000" font-size="14" text-anchor="middle" text-vertical-anchor="middle" pointer-events="none"></text></g></g></g><!--z-index:47--><!--z-index:48--><!--z-index:49--><!--z-index:50--><!--z-index:51--><!--z-index:52--><!--z-index:53--><!--z-index:54--><!--z-index:55--><!--z-index:56--><!--z-index:57--><!--z-index:58--><!--z-index:59--><!--z-index:60--><!--z-index:61--><!--z-index:62--><!--z-index:63--><!--z-index:64--><!--z-index:65--><!--z-index:66--><!--z-index:67--><!--z-index:68--><!--z-index:69--><!--z-index:70--><!--z-index:71--><!--z-index:72--><!--z-index:73--><!--z-index:74--><!--z-index:75--><!--z-index:76--><!--z-index:77--><!--z-index:78--><!--z-index:79--><!--z-index:80--><!--z-index:81--><!--z-index:82--><!--z-index:83--><!--z-index:84--><!--z-index:85--><!--z-index:86--><!--z-index:87--><!--z-index:88--><!--z-index:89--><!--z-index:90--><!--z-index:91--><!--z-index:92--><!--z-index:93--><!--z-index:94--><!--z-index:95--><!--z-index:96--><!--z-index:97--><!--z-index:98--><!--z-index:99--><!--z-index:100--><!--z-index:101--><!--z-index:102--><!--z-index:103--><!--z-index:104--><!--z-index:105--><!--z-index:106--><!--z-index:107--><!--z-index:108--><!--z-index:109--><!--z-index:110--><!--z-index:111--><!--z-index:112--><!--z-index:113--><!--z-index:114--><!--z-index:115--><!--z-index:116--><!--z-index:117--><!--z-index:118--><!--z-index:119--><!--z-index:120--><!--z-index:121--><!--z-index:122--><!--z-index:123--><!--z-index:124--><!--z-index:125--><!--z-index:126--><!--z-index:127--><!--z-index:128--><!--z-index:129--><!--z-index:130--><!--z-index:131--><!--z-index:132--><!--z-index:133--><!--z-index:134--><!--z-index:135--><!--z-index:136--><!--z-index:137--><!--z-index:138--><!--z-index:139--><!--z-index:140--><!--z-index:141--><!--z-index:142--><!--z-index:143--><!--z-index:144--><!--z-index:145--><!--z-index:146--><!--z-index:147--><!--z-index:148--><!--z-index:149--><!--z-index:150--><!--z-index:151--><!--z-index:152--><!--z-index:153--><!--z-index:154--><!--z-index:155--><!--z-index:156--><!--z-index:157--><!--z-index:158--><!--z-index:159--><!--z-index:160--><!--z-index:161--><!--z-index:162--><!--z-index:163--><!--z-index:164--><!--z-index:165--><!--z-index:166--><!--z-index:167--><!--z-index:168--><!--z-index:169--><!--z-index:170--><!--z-index:171--><!--z-index:172--><!--z-index:173--><!--z-index:174--><!--z-index:175--><!--z-index:176--><!--z-index:177--><!--z-index:178--><!--z-index:179--><!--z-index:180--><!--z-index:181--><!--z-index:182--><!--z-index:183--><!--z-index:184--><!--z-index:185--><!--z-index:186--><!--z-index:187--><!--z-index:188--><!--z-index:189--><!--z-index:190--><!--z-index:191--><!--z-index:192--><!--z-index:193--><!--z-index:194--><!--z-index:195--><!--z-index:196--><!--z-index:197--><!--z-index:198--><!--z-index:199--><!--z-index:200--><!--z-index:201--><!--z-index:202--><!--z-index:203--><!--z-index:204--><!--z-index:205--><!--z-index:206--><!--z-index:207--><!--z-index:208--><!--z-index:209--><!--z-index:210--><!--z-index:211--><!--z-index:212--><!--z-index:213--><!--z-index:214--><!--z-index:215--><!--z-index:216--><!--z-index:217--><!--z-index:218--><!--z-index:219--><!--z-index:220--><!--z-index:221--><!--z-index:222--><!--z-index:223--><!--z-index:224--><!--z-index:225--><!--z-index:226--><!--z-index:227--><!--z-index:228--><!--z-index:229--><!--z-index:230--><!--z-index:231--><!--z-index:232--><!--z-index:233--><!--z-index:234--><!--z-index:235--><!--z-index:236--><!--z-index:237--><!--z-index:238--><!--z-index:239--><!--z-index:240--><!--z-index:241--><!--z-index:242--><!--z-index:243--><!--z-index:244--><!--z-index:245--><!--z-index:246--><!--z-index:247--><!--z-index:248--><!--z-index:249--><!--z-index:250--><!--z-index:251--><!--z-index:252--><!--z-index:253--><!--z-index:254--><!--z-index:255--><!--z-index:256--><!--z-index:257--><!--z-index:258--><!--z-index:259--><!--z-index:260--><!--z-index:261--><!--z-index:262--><!--z-index:263--><!--z-index:264--><!--z-index:265--><!--z-index:266--><!--z-index:267--><!--z-index:268--><!--z-index:269--><!--z-index:270--><!--z-index:271--><!--z-index:272--><!--z-index:273--><!--z-index:274--><!--z-index:275--><!--z-index:276--><!--z-index:277--><!--z-index:278--><!--z-index:279--><!--z-index:280--><!--z-index:281--><!--z-index:282--><!--z-index:283--><!--z-index:284--><!--z-index:285--><!--z-index:286--><!--z-index:287--><!--z-index:288--><!--z-index:289--><!--z-index:290--><!--z-index:291--><!--z-index:292--><!--z-index:293--><!--z-index:294--><!--z-index:295--><!--z-index:296--><!--z-index:297--><!--z-index:298--><!--z-index:299--><!--z-index:300--><!--z-index:301--><!--z-index:302--><!--z-index:303--><!--z-index:304--><!--z-index:305--><!--z-index:306--><!--z-index:307--><!--z-index:308--><!--z-index:309--><!--z-index:310--><!--z-index:311--><!--z-index:312--><!--z-index:313--><!--z-index:314--><!--z-index:315--><!--z-index:316--><!--z-index:317--><!--z-index:318--><!--z-index:319--><!--z-index:320--><!--z-index:321--><!--z-index:322--><!--z-index:323--><!--z-index:324--><!--z-index:325--><!--z-index:326--><!--z-index:327--><!--z-index:328--><!--z-index:329--><!--z-index:330--><!--z-index:331--><!--z-index:332--><!--z-index:333--><!--z-index:334--><!--z-index:335--><!--z-index:336--><!--z-index:337--><!--z-index:338--><!--z-index:339--><!--z-index:340--><!--z-index:341--><!--z-index:342--><!--z-index:343--><!--z-index:344--><!--z-index:345--><!--z-index:346--><!--z-index:347--><!--z-index:348--><!--z-index:349--><!--z-index:350--><!--z-index:351--><!--z-index:352--><!--z-index:353--><!--z-index:354--><!--z-index:355--><!--z-index:356--><!--z-index:357--><!--z-index:358--><!--z-index:359--><!--z-index:360--><!--z-index:361--><!--z-index:362--><!--z-index:363--><!--z-index:364--><!--z-index:365--><!--z-index:366--><!--z-index:367--><!--z-index:368--><!--z-index:369--><!--z-index:370--><!--z-index:371--><!--z-index:372--><!--z-index:373--><!--z-index:374--><!--z-index:375--><!--z-index:376--><!--z-index:377--><!--z-index:378--><!--z-index:379--><!--z-index:380--><!--z-index:381--><!--z-index:382--><!--z-index:383--><!--z-index:384--><!--z-index:385--><!--z-index:386--><!--z-index:387--><!--z-index:388--><!--z-index:389--><!--z-index:390--><!--z-index:391--><!--z-index:392--><!--z-index:393--><!--z-index:394--><!--z-index:395--><!--z-index:396--><!--z-index:397--><!--z-index:398--><!--z-index:399--><!--z-index:400--><!--z-index:401--><!--z-index:402--><!--z-index:403--><!--z-index:404--><!--z-index:405--><!--z-index:406--><!--z-index:407--><!--z-index:408--><!--z-index:409--><!--z-index:410--><!--z-index:411--><!--z-index:412--><!--z-index:413--><!--z-index:414--><!--z-index:415--><!--z-index:416--><!--z-index:417--><!--z-index:418--><!--z-index:419--><!--z-index:420--><!--z-index:421--><!--z-index:422--><!--z-index:423--><!--z-index:424--><!--z-index:425--><!--z-index:426--><!--z-index:427--><!--z-index:428--><!--z-index:429--><!--z-index:430--><!--z-index:431--><!--z-index:432--><!--z-index:433--><!--z-index:434--><!--z-index:435--><!--z-index:436--><!--z-index:437--><!--z-index:438--><!--z-index:439--><!--z-index:440--><!--z-index:441--><!--z-index:442--><!--z-index:443--><!--z-index:444--><!--z-index:445--><!--z-index:446--><!--z-index:447--><!--z-index:448--><!--z-index:449--><!--z-index:450--><!--z-index:451--><!--z-index:452--><!--z-index:453--><!--z-index:454--><!--z-index:455--><!--z-index:456--><!--z-index:457--><!--z-index:458--><!--z-index:459--><!--z-index:460--><!--z-index:461--><!--z-index:462--><!--z-index:463--><!--z-index:464--><!--z-index:465--><!--z-index:466--><!--z-index:467--><!--z-index:468--><!--z-index:469--><!--z-index:470--><!--z-index:471--><!--z-index:472--><!--z-index:473--><!--z-index:474--><!--z-index:475--><!--z-index:476--><!--z-index:477--><!--z-index:478--><!--z-index:479--><!--z-index:480--><!--z-index:481--><!--z-index:482--><!--z-index:483--></g><g  style="user-select: none;"></g><g ></g><g  display="none"></g></g></svg>